<svg xmlns="http://www.w3.org/2000/svg" width="91.12" height="75.26" viewBox="0 0 91.12 75.26">
  <g id="Grupo_3" data-name="Grupo 3" transform="translate(0 0.02)">
    <g id="Grupo_2" data-name="Grupo 2">
      <path id="Trazado_11" data-name="Trazado 11" d="M21.78,42.71a1.72,1.72,0,0,0,2.31-.78h0a24.1,24.1,0,0,1,14-12.19,1.731,1.731,0,1,0-1.08-3.29,27.58,27.58,0,0,0-16,14,1.71,1.71,0,0,0,.78,2.31Z" transform="translate(-2.44 -4.38)" fill="#000000"/>
      <path id="Trazado_12" data-name="Trazado 12" d="M82.11,43.66C77.56,29.51,67,18.78,54,16.2V14.9a5.22,5.22,0,0,0,2.89-4.54c0-3.93-4.47-6-8.89-6s-8.89,2.05-8.89,6A5.22,5.22,0,0,0,42,14.9v1.3C29,18.77,18.42,29.5,13.88,43.66,6.39,47.56,2.44,52.55,2.44,58.14,2.44,70.39,22,79.62,48,79.62s45.56-9.23,45.56-21.48C93.56,52.55,89.6,47.54,82.11,43.66ZM48,9a7.77,7.77,0,0,1,4.84,1.34,4.32,4.32,0,0,1-1.37.77,2.32,2.32,0,0,0-1.35,2.21v5.43a15.84,15.84,0,0,1-4.24,0V13.34a2.3,2.3,0,0,0-1.35-2.2,4.55,4.55,0,0,1-1.37-.78A7.77,7.77,0,0,1,48,9ZM42,20.91a1.29,1.29,0,0,0,.08.31.18.18,0,0,0,0,.1,2.87,2.87,0,0,0,.15.37.75.75,0,0,1,.07.12l.14.22.11.12.16.17a.63.63,0,0,0,.13.11l.18.14.15.1.2.12.17.08.22.1.18.08.24.08.19.05.26.07.21.05.27.05h5.67l.26-.05.21-.05.25-.06.21-.06.23-.08.18-.07.22-.1.17-.09.2-.11.15-.1.18-.14.13-.12.16-.17.1-.12.15-.23.06-.1a2.05,2.05,0,0,0,.16-.38h0a2.127,2.127,0,0,1,.1-.4A35.12,35.12,0,0,1,78.78,46.26c.25.84.48,1.69.67,2.54l.06.25c.2.84.36,1.69.5,2.55a.822.822,0,0,0,.06.37c.14.85.25,1.71.34,2.57a3.159,3.159,0,0,0,0,.32c.09.9.15,1.79.19,2.69a51.18,51.18,0,0,1-10.89,4.76,75,75,0,0,1-22.12,3.22A73.4,73.4,0,0,1,22.7,61.35l-.42-.14L22,61.08A47.65,47.65,0,0,1,15.36,58v-.07c0-.89.08-1.78.16-2.66v-.42c.09-.87.19-1.73.33-2.59a1.012,1.012,0,0,1,.07-.45c.14-.87.3-1.73.5-2.58a2.169,2.169,0,0,1,.07-.35c.21-.88.43-1.76.69-2.63A35,35,0,0,1,42,20.91ZM48,75C23.43,75,6.31,66.12,6.31,58.15a11.3,11.3,0,0,1,6-8.41,2.891,2.891,0,0,1-.08.5c-.09.48-.16,1-.24,1.46,0,.28-.08.57-.11.86s-.11.89-.16,1.34l-.09.92c0,.45-.07.89-.09,1.34a7.15,7.15,0,0,1-.05.91v2.36a2.38,2.38,0,0,0,1.06,2.07A68.67,68.67,0,0,0,47.6,70.15a78.879,78.879,0,0,0,21.92-3,54.13,54.13,0,0,0,14-6.15,2.42,2.42,0,0,0,1-2.06c0-.76,0-1.51-.07-2.26v-.44a16.957,16.957,0,0,0-.13-1.75,2.246,2.246,0,0,0-.06-.63c-.06-.52-.12-1-.19-1.55L84,51.62c-.08-.51-.16-1-.25-1.51l-.06-.37a11.33,11.33,0,0,1,6,8.41C89.68,66.11,72.57,75,48,75Z" transform="translate(-2.44 -4.38)" fill="#000000"/>
    </g>
  </g>
</svg>
