<svg xmlns="http://www.w3.org/2000/svg" xmlns:xlink="http://www.w3.org/1999/xlink" version="1.1" x="0px" y="0px" viewBox="0 0 100 125" enable-background="new 0 0 100 100" xml:space="preserve"><g><g><path fill="#000000" d="M87.919,91.23h-2.137V46.368h2.137c1.039,0,1.883-0.847,1.883-1.887s-0.844-1.887-1.883-1.887H74.196    c1.87-2.054,3.017-4.788,3.017-7.78v-2.832c0-0.197-0.004-0.401-0.017-0.651c-0.053-1.002-0.88-1.789-1.887-1.789H56.009    c-1.002,0-1.833,0.786-1.883,1.789c-0.012,0.233-0.02,0.446-0.02,0.651v2.832c0,2.992,1.146,5.726,3.02,7.78H6.887    C5.845,42.594,5,43.441,5,44.481s0.845,1.887,1.887,1.887h2.175V91.23H6.887C5.845,91.23,5,92.074,5,93.117    C5,94.157,5.845,95,6.887,95h81.032c1.039,0,1.883-0.843,1.883-1.883C89.802,92.074,88.958,91.23,87.919,91.23z M57.879,33.316    h15.564v1.498c0,4.289-3.491,7.78-7.784,7.78c-4.289,0-7.78-3.491-7.78-7.78V33.316z M45.537,91.23H12.833V46.368h32.704V91.23z     M82.014,91.23H49.309V46.368h32.705V91.23z"/><path fill="#000000" d="M69.466,19.947c-0.696,0.778-0.631,1.969,0.147,2.664c0.359,0.324,0.81,0.483,1.26,0.483    c0.512,0,1.027-0.212,1.404-0.626c3.2-3.573,1.231-7.109-0.209-9.695c-1.367-2.456-1.838-3.569-0.979-4.739    c0.614-0.843,0.435-2.021-0.404-2.636c-0.84-0.618-2.022-0.438-2.636,0.401c-2.378,3.241-0.586,6.458,0.72,8.807    C70.296,17.344,70.751,18.514,69.466,19.947z"/><path fill="#000000" d="M59.913,19.947c-0.695,0.778-0.63,1.969,0.147,2.664c0.36,0.324,0.811,0.483,1.257,0.483    c0.52,0,1.035-0.212,1.403-0.626c3.205-3.573,1.232-7.113-0.204-9.695c-1.367-2.456-1.838-3.569-0.979-4.739    c0.614-0.843,0.434-2.021-0.405-2.636c-0.843-0.618-2.021-0.438-2.64,0.401c-2.374,3.241-0.581,6.458,0.725,8.807    C60.744,17.344,61.198,18.514,59.913,19.947z"/><path fill="#000000" d="M10.912,8.804h7.647v10.813c-2.447,0.798-4.224,3.098-4.224,5.808v1.588c0,3.368,2.742,6.106,6.11,6.106    s6.106-2.738,6.106-6.106v-1.588c0-2.709-1.772-5.009-4.22-5.808V8.804H36.04v10.813c-2.449,0.798-4.226,3.098-4.226,5.808v5.812    c0,1.039,0.845,1.886,1.887,1.886h8.445c1.042,0,1.885-0.847,1.885-1.886v-5.808c0-2.713-1.772-5.013-4.222-5.812V8.804h7.647    c1.043,0,1.887-0.847,1.887-1.887c0-1.043-0.843-1.887-1.887-1.887h-9.484c-0.031,0-0.063,0-0.094,0H20.49    c-0.028,0-0.061,0-0.094,0h-9.485c-1.042,0-1.884,0.843-1.884,1.887C9.027,7.957,9.87,8.804,10.912,8.804z M37.925,23.091    c1.287,0,2.335,1.048,2.335,2.333v3.925h-4.672v-3.925C35.588,24.139,36.636,23.091,37.925,23.091z M20.443,23.091h0.002    c1.287,0,2.335,1.048,2.335,2.333v1.588c0,1.289-1.048,2.337-2.337,2.337c-1.287,0-2.335-1.048-2.335-2.337v-1.588    C18.108,24.139,19.156,23.091,20.443,23.091z"/><path fill="#000000" d="M23.953,56.783h10.463c1.042,0,1.887-0.839,1.887-1.883c0-1.043-0.845-1.887-1.887-1.887H23.953    c-1.04,0-1.884,0.844-1.884,1.887C22.068,55.944,22.913,56.783,23.953,56.783z"/><path fill="#000000" d="M73.996,56.783h0.348c1.044,0,1.887-0.839,1.887-1.883c0-1.043-0.843-1.887-1.887-1.887h-0.348    c-1.044,0-1.887,0.844-1.887,1.887C72.109,55.944,72.952,56.783,73.996,56.783z"/><path fill="#000000" d="M65.312,56.783h0.348c1.044,0,1.887-0.839,1.887-1.883c0-1.043-0.843-1.887-1.887-1.887h-0.348    c-1.039,0-1.887,0.844-1.887,1.887C63.425,55.944,64.272,56.783,65.312,56.783z"/><path fill="#000000" d="M56.975,85.6h17.369c1.044,0,1.887-0.844,1.887-1.887V63.25c0-1.04-0.843-1.883-1.887-1.883H56.975    c-1.039,0-1.882,0.843-1.882,1.883v20.463C55.093,84.756,55.936,85.6,56.975,85.6z M58.861,65.137h13.6v16.689h-13.6V65.137z"/><path fill="#000000" d="M56.975,56.783h0.349c1.043,0,1.886-0.839,1.886-1.883c0-1.043-0.843-1.887-1.886-1.887h-0.349    c-1.039,0-1.882,0.844-1.882,1.887C55.093,55.944,55.936,56.783,56.975,56.783z"/></g></g></svg>