<svg xmlns="http://www.w3.org/2000/svg" width="64.735" height="80.312" viewBox="0 0 64.735 80.312">
  <g id="Grupo_4" data-name="Grupo 4" transform="translate(-0.017 -0.001)">
    <path id="Trazado_13" data-name="Trazado 13" d="M72.19,2.73a1,1,0,0,0-1-.69H26.1a2.59,2.59,0,0,0-2.56,1.74L20.18,15.61,15.82,30.87a.85.85,0,0,0,0,.23V73.37A2.42,2.42,0,0,0,18,75.64L63.74,82a1,1,0,0,0,.65-.1h.07l14.46-7.46a2.31,2.31,0,0,0,1.29-2V29.94a1,1,0,0,0,0-.24ZM25.64,4.22a.47.47,0,0,1,.46-.31H69.83l-2.14,9.63A20.9,20.9,0,0,1,44.54,28.37L30.91,27a9,9,0,0,1-8.83-9.21,8.67,8.67,0,0,1,.2-1.69ZM18,73.37V31.22L20.6,22a12.11,12.11,0,0,0,10.06,6.9l13.63,1.41A24.55,24.55,0,0,0,65.84,22l-3,13.48a.55.55,0,0,0,0,.18V79.94L18.35,73.79a.44.44,0,0,1-.35-.42Zm60.11-1a.44.44,0,0,1-.24.37L65,79.37V35.69L71.3,7.24l6.77,22.82Z" transform="translate(-15.63 -1.87)" fill="#000000" stroke="#000000" stroke-width="0.33"/>
    <path id="Trazado_14" data-name="Trazado 14" d="M36.29,17H54.14a5.3,5.3,0,0,0,0-10.6H36.29a5.3,5.3,0,0,0,0,10.6Zm-2.91-6.06a3,3,0,0,1,2.91-2.25H54.14a3,3,0,1,1,.2,6H36.29a3,3,0,0,1-3-3,3.22,3.22,0,0,1,.09-.78Z" transform="translate(-15.63 -1.87)" fill="#000000" stroke="#717171" stroke-width="0.33"/>
    <path id="Trazado_15" data-name="Trazado 15" d="M43.67,19.29a3.9,3.9,0,0,0-3.34-.64c-1.42.4-3.77,1.78-3.44,6.57a1.13,1.13,0,0,0,1,1.06l5.61.62h.12a1.15,1.15,0,0,0,1-.66C44.76,26.06,46.79,21.69,43.67,19.29Zm-.8,5.23-3.71-.41c0-1.42.43-2.87,1.79-3.25a1.52,1.52,0,0,1,1.32.24,3.15,3.15,0,0,1,.6,3.43Z" transform="translate(-15.63 -1.87)" fill="#000000" stroke="#000000" stroke-width="0.33"/>
  </g>
</svg>
